<svg width="16" height="20" viewBox="0 0 16 20" fill="none" xmlns="http://www.w3.org/2000/svg">
<path d="M1.39449 19.5H1.39466C1.51549 19.5 1.69176 19.4443 1.89209 19.2732L1.89323 19.2722L7.08384 14.8652C7.08402 14.865 7.0842 14.8648 7.08439 14.8647C7.3479 14.6399 7.69827 14.5299 8.03872 14.5299C8.37957 14.5299 8.72931 14.6402 8.99297 14.8651L1.39449 19.5ZM1.39449 19.5C1.27043 19.5 1.15866 19.4422 1.08828 19.3413C1.01224 19.2321 0.954102 19.0765 0.954102 18.8639V1.69775C0.954102 1.07734 1.53573 0.5 2.22901 0.5H13.8332C14.5029 0.5 15.0452 1.05432 15.0452 1.69775V18.864C15.0452 19.1622 14.9623 19.3171 14.8953 19.3913C14.8289 19.4648 14.7426 19.5001 14.646 19.5001C14.534 19.5001 14.3776 19.4515 14.1678 19.2724L14.1673 19.2721L8.99347 14.8655L1.39449 19.5Z" stroke="#FF4B55"/>
</svg>
