<svg width="20" height="14" viewBox="0 0 20 14" fill="none" xmlns="http://www.w3.org/2000/svg">
<path d="M18.2422 0.148788H1.75781C0.788555 0.148788 0 0.937343 0 1.9066V12.0934C0 13.0627 0.788555 13.8512 1.75781 13.8512H18.2422C19.2114 13.8512 20 13.0627 20 12.0934V1.9066C20 0.937343 19.2114 0.148788 18.2422 0.148788ZM18.0128 1.32066L17.7782 1.51602L10.6974 7.41215C10.2933 7.74863 9.70664 7.74863 9.30258 7.41215L2.22184 1.51602L1.98723 1.32066H18.0128ZM1.17188 2.16668L6.94109 6.9707L1.17188 10.8103V2.16668ZM18.2422 12.6793H1.75781C1.47469 12.6793 1.23789 12.4775 1.18363 12.2102L7.8807 7.75309L8.55273 8.3127C8.97203 8.66184 9.48606 8.83641 10 8.83641C10.514 8.83641 11.028 8.66184 11.4473 8.3127L12.1194 7.75309L18.8164 12.2101C18.7621 12.4775 18.5253 12.6793 18.2422 12.6793ZM18.8281 10.8103L13.0589 6.97074L18.8281 2.16668V10.8103Z" fill="#8B5D9A"/>
</svg>
