<svg width="80" height="80" viewBox="0 0 80 80" fill="none" xmlns="http://www.w3.org/2000/svg">
<g clip-path="url(#clip0_48:965)">
<path d="M71.5632 27.7812L65.1882 18.2188C64.6257 17.375 63.5477 16.953 62.5632 17.2812C61.5786 17.5625 60.8757 18.5 60.8757 19.5314C60.8757 24.125 60.1724 28.7188 58.86 33.1719C57.735 29.9375 55.5788 27.0781 52.6255 25.1561C47.4224 21.6873 46.0163 14.9061 49.485 9.70312L53.5632 3.60938C54.0318 2.90609 54.0788 1.96859 53.6568 1.21875C53.2819 0.468594 52.4849 0 51.5942 0C47.4697 0 43.5789 0.796719 39.9696 2.24984C28.9541 6.65609 20.9852 16.8594 20.2354 29.2811C19.4852 27.2655 19.0635 25.1092 19.0635 22.9061V13.7188C19.0635 12.6877 18.3602 11.7502 17.3758 11.4689C16.3916 11.1408 15.3133 11.5628 14.7508 12.4064L11.6104 17.1408C5.79785 25.8595 2.75098 35.9844 2.75098 46.4377C2.75066 64.953 17.7977 80 36.3133 80H43.6258C62.1411 80 77.2507 64.953 77.2507 46.4377C77.2507 39.7811 75.2664 33.3123 71.5632 27.7812Z" fill="#FE9923"/>
<path d="M41.9834 41.6094C41.5617 40.8127 40.7647 40.4375 39.9678 40.4375C39.1711 40.4375 38.4207 40.8127 37.9522 41.6094C28.249 58.4377 25.999 60.5938 25.999 66.0314C25.999 73.7189 32.2801 80 39.9676 80C47.6551 80 53.9362 73.7189 53.9362 66.0314C53.9364 60.0781 49.9522 55.4375 41.9834 41.6094Z" fill="#FEDB41"/>
<path d="M77.25 46.4377C77.25 64.953 62.1405 80 43.6252 80H39.9688V2.24984C43.5783 0.796719 47.4689 0 51.5936 0C52.4842 0 53.2813 0.468594 53.6561 1.21875C54.0781 1.96859 54.0313 2.90625 53.5625 3.60938L49.4844 9.70312C46.0156 14.9062 47.4219 21.6875 52.6249 25.1561C55.578 27.0781 57.7344 29.9375 58.8594 33.1719C60.1717 28.7188 60.875 24.125 60.875 19.5314C60.875 18.5 61.578 17.5625 62.5625 17.2812C63.547 16.9531 64.625 17.3752 65.1875 18.2188L71.5625 27.7812C75.2658 33.3123 77.25 39.7811 77.25 46.4377Z" fill="#FE8821"/>
<path d="M53.9374 66.0314C53.9374 73.7189 47.6563 80 39.9688 80V40.4375C40.7655 40.4375 41.5627 40.8127 41.9844 41.6094C49.9531 55.4375 53.9374 60.0781 53.9374 66.0314Z" fill="#FCBF29"/>
</g>
<defs>
<clipPath id="clip0_48:965">
<rect width="80" height="80" fill="white"/>
</clipPath>
</defs>
</svg>
